<?xml version="1.0" encoding="iso-8859-1"?>
<!-- Generator: Adobe Illustrator 19.1.0, SVG Export Plug-In . SVG Version: 6.00 Build 0)  -->
<svg version="1.1" id="Capa_1" xmlns="http://www.w3.org/2000/svg" xmlns:xlink="http://www.w3.org/1999/xlink" x="0px" y="0px"
	 viewBox="0 0 513.059 513.059" style="enable-background:new 0 0 513.059 513.059;" xml:space="preserve">
<g>
	<g>
		<g>
			<path d="M489.628,36.099l-4.278-8.555l-8.555-4.278c-128.33-49.193-275.909-19.249-374.296,79.137
				s-128.33,245.966-79.137,374.296l4.278,8.555l8.555,4.278c40.638,17.11,85.553,23.527,128.33,23.527
				c91.97,0,179.662-36.36,248.105-102.664C508.877,312.009,538.822,164.429,489.628,36.099L489.628,36.099z M380.547,380.451
				C301.41,459.588,188.052,487.393,83.25,459.588l59.887-59.887l-29.944-29.944l-59.887,59.887
				c-27.805-104.803,0-218.161,79.137-297.298S324.938,25.405,429.741,53.21l-59.887,59.887l29.944,29.944l59.887-59.887
				C487.489,187.956,459.685,301.314,380.547,380.451z"/>
			<path d="M225.08,195.473l92.254,92.254l-30.247,30.247l-92.254-92.254L225.08,195.473z"/>
			<path d="M180.166,240.391l92.254,92.254l-30.247,30.247l-92.254-92.254L180.166,240.391z"/>
			<path d="M239.385,181.54l91.97,91.969l29.943-29.943l-89.831-94.109L239.385,181.54z"/>
		</g>
	</g>
</g>
<g>
</g>
<g>
</g>
<g>
</g>
<g>
</g>
<g>
</g>
<g>
</g>
<g>
</g>
<g>
</g>
<g>
</g>
<g>
</g>
<g>
</g>
<g>
</g>
<g>
</g>
<g>
</g>
<g>
</g>
</svg>
